<mxfile host="app.diagrams.net" modified="2024-07-21T06:50:51.354Z" agent="Mozilla/5.0 (Macintosh; Intel Mac OS X 10_15_7) AppleWebKit/537.36 (KHTML, like Gecko) Chrome/126.0.0.0 Safari/537.36" version="24.6.4" etag="j-c_uVK2sZ9Q6Pdb50u4" type="github">
  <diagram name="Page-1" id="tPfWv-KvZIML5b-OxrrU">
    <mxGraphModel>
      <root>
        <mxCell id="0" />
        <mxCell id="1" parent="0" />
      </root>
    </mxGraphModel>
  </diagram>
</mxfile>
